<svg xmlns="http://www.w3.org/2000/svg" width="14.1" height="19.9" viewBox="0 0 14.1 19.9">
  <path id="path" d="M302.7,803.5a6.565,6.565,0,0,1,4.9-2,6.83,6.83,0,0,1,6.9,6.9,8.522,8.522,0,0,1-.7,3.3,23.134,23.134,0,0,1-1.8,3.5c-.7,1.1-1.4,2.1-2,3.1a17.186,17.186,0,0,1-1.7,2.3l-.8.8c-.2-.2-.4-.5-.8-.9a22.062,22.062,0,0,1-1.7-2.2c-.8-1.1-1.5-2.1-2.1-3.1a26.939,26.939,0,0,1-1.7-3.4,9.266,9.266,0,0,1-.8-3.4A8.634,8.634,0,0,1,302.7,803.5Zm3.2,6.7a2.664,2.664,0,1,0-.7-1.8A2.41,2.41,0,0,0,305.9,810.2Z" transform="translate(-300.4 -801.5)" fill="#eb3135"/>
</svg>
